# xmcd
#
# Track frame offsets: 
#        150
#        13250
#        30463
#        61919
#
# Disc length: 1511 seconds
#
# Revision: 0
# Processed by: cddbd v1.5.1PL0 Copyright (c) Steve Scherf et al.
# Submitted via: ExactAudioCopy v0.95a4
#
DISCID=2905e504
DTITLE=Bonnie "Prince" Billy - No More Workhorse Blues
DYEAR=2004
DGENRE=Indie
TTITLE0=No More Workhorse Blues
TTITLE1=Ruby
TTITLE2=The Kiss
TTITLE3=Workhorse video
EXTD=
EXTT0=
EXTT1=
EXTT2=
EXTT3=
PLAYORDER=
